<?xml version="1.0" encoding="utf-8"?>
<!-- Generator: Adobe Illustrator 27.1.1, SVG Export Plug-In . SVG Version: 6.00 Build 0)  -->
<svg version="1.1" id="Layer_1" xmlns="http://www.w3.org/2000/svg" xmlns:xlink="http://www.w3.org/1999/xlink" x="0px" y="0px"
	 viewBox="0 0 110 11.9" style="enable-background:new 0 0 110 11.9;" xml:space="preserve">
<style type="text/css">
	.st0{opacity:0.4;}
	.st1{fill:#FFFFFF;}
</style>
<g id="FPPrp2.tif" class="st0">
	<path class="st1" d="M45.8,10.5l-0.2-0.1c-0.3-0.1-0.5-0.1-0.8-0.2c-0.4-0.1-0.7-0.3-1-0.5c-0.4-0.3-0.6-0.6-0.9-1
		c-0.1-0.1-0.2-0.3-0.2-0.4c-0.1-0.2-0.1-0.4-0.2-0.6c-0.1-0.3-0.1-0.7-0.1-1c0-0.2,0-0.4,0.1-0.6c0.1-0.2,0.1-0.5,0.2-0.7
		c0.1-0.3,0.3-0.5,0.5-0.8c0.2-0.3,0.6-0.5,0.9-0.7c0.3-0.2,0.6-0.3,1-0.3c0.3,0,0.5-0.1,0.8-0.1c0.5,0,1,0,1.5,0c0,0,0,0,0,0v1.9
		h-0.8c-0.3,0-0.5,0-0.8,0.1c-0.5,0.1-0.9,0.5-1,0.9c-0.1,0.2-0.1,0.5-0.1,0.7c0,0.3,0.1,0.5,0.3,0.8c0.2,0.3,0.6,0.5,0.9,0.6
		c0.1,0,0.3,0,0.5,0c0.2,0,0.3,0,0.5-0.1c0.5-0.1,0.8-0.5,0.9-1c0-0.2,0.1-0.3,0.1-0.5c0-1.1,0-2.2,0-3.4V3.5h2.4v3.3
		c0,0.3,0.1,0.7,0.2,1c0.2,0.4,0.5,0.7,1,0.8c0.2,0.1,0.4,0.1,0.6,0.1c0.2,0,0.4-0.1,0.6-0.2C53,8.3,53.2,8,53.3,7.7
		c0.1-0.2,0.1-0.3,0.1-0.5c0-0.3,0-0.5-0.1-0.8C53.3,6.2,53.2,6,53,5.9c-0.2-0.2-0.5-0.3-0.9-0.4c-0.4-0.1-0.9,0-1.3,0h-0.1
		c0,0,0,0,0,0V3.5h0.1c0.3,0,0.7,0,1,0c0.3,0,0.5,0,0.8,0.1c0.4,0,0.7,0.1,1.1,0.3c0.3,0.1,0.6,0.3,0.9,0.5c0.2,0.2,0.3,0.3,0.5,0.5
		c0.2,0.2,0.3,0.5,0.4,0.8c0.1,0.3,0.2,0.5,0.2,0.8c0,0.3,0,0.6,0,0.8c0,0.2,0,0.5-0.1,0.7c0,0.2-0.1,0.3-0.2,0.5
		c-0.2,0.4-0.5,0.8-0.8,1.1c-0.3,0.2-0.6,0.5-0.9,0.6c-0.3,0.1-0.6,0.2-0.9,0.3c-0.1,0-0.2,0-0.3,0c0,0,0,0,0,0h-0.8c0,0,0,0,0,0
		c-0.2,0-0.3-0.1-0.5-0.1c-0.4-0.1-0.7-0.2-1-0.4c-0.3-0.2-0.6-0.5-0.9-0.7l-0.1-0.1c0,0-0.1,0.1-0.1,0.1c-0.2,0.2-0.4,0.3-0.5,0.5
		c-0.2,0.2-0.5,0.3-0.7,0.5c-0.2,0.1-0.4,0.2-0.6,0.2c-0.1,0-0.2,0.1-0.4,0.1c-0.1,0-0.2,0-0.2,0.1L45.8,10.5z"/>
	<path class="st1" d="M108.5,10.3h-2.4V6.6c0-0.3-0.1-0.6-0.3-0.8c-0.1-0.1-0.2-0.2-0.4-0.2c-0.2,0-0.4-0.1-0.6-0.1
		c-0.3,0-0.6,0-1,0v4.8h-2.4V6.7c0-0.3,0-0.5-0.1-0.8c-0.1-0.2-0.2-0.3-0.4-0.4c-0.2,0-0.3-0.1-0.5-0.1c-0.3,0-0.6,0-1,0h-0.1v4.8
		h-2.4V3.4h3.9c0.4,0,0.9,0,1.3,0.2c0.3,0.1,0.6,0.2,0.9,0.4c0.3,0.2,0.5,0.5,0.7,0.8c0,0.1,0.1,0.2,0.1,0.3V3.4c0,0,0.1,0,0.1,0
		c0.4,0,0.9,0,1.3,0c0.4,0,0.7,0,1.1,0.1c0.3,0.1,0.6,0.2,0.9,0.3c0.2,0.1,0.4,0.3,0.6,0.5c0.2,0.2,0.4,0.5,0.5,0.8
		c0,0.2,0.1,0.4,0.1,0.6c0,0,0,0,0,0L108.5,10.3L108.5,10.3z"/>
	<path class="st1" d="M59.8,10.5c-0.1,0-0.1,0-0.2,0c-0.2,0-0.5-0.1-0.7-0.1c-0.5-0.1-1-0.3-1.4-0.6c-0.2-0.1-0.4-0.3-0.5-0.5
		c-0.2-0.2-0.3-0.4-0.4-0.6c-0.2-0.3-0.3-0.7-0.4-1.1c-0.1-0.3-0.1-0.6,0-0.9c0-0.4,0.1-0.8,0.3-1.1c0.2-0.4,0.4-0.7,0.7-1
		c0.2-0.2,0.5-0.4,0.7-0.6c0.3-0.2,0.6-0.3,1-0.4c0.2-0.1,0.4-0.1,0.5-0.1c0.1,0,0.2,0,0.3,0c0.2,0,0.5,0,0.7,0c0.2,0,0.4,0,0.6,0.1
		c0.3,0,0.6,0.1,0.9,0.2c0.3,0.1,0.6,0.3,0.9,0.5c0.2,0.1,0.3,0.2,0.5,0.4c0.3,0.3,0.6,0.7,0.8,1.1c0.1,0.2,0.2,0.5,0.2,0.8
		c0,0.2,0.1,0.3,0.1,0.5c0,0.2,0,0.5,0,0.7c0,0.2-0.1,0.3-0.1,0.5c-0.1,0.4-0.3,0.7-0.5,1c-0.2,0.2-0.3,0.5-0.6,0.7
		c-0.2,0.2-0.5,0.4-0.8,0.6c-0.3,0.2-0.7,0.3-1.1,0.3c-0.1,0-0.3,0-0.4,0.1c0,0,0,0,0,0L59.8,10.5L59.8,10.5z M60.3,8.7
		c0.1,0,0.2,0,0.3,0C61,8.5,61.3,8.3,61.6,8c0.3-0.4,0.4-0.8,0.3-1.3c-0.1-0.9-1-1.5-1.9-1.4c-0.1,0-0.1,0-0.2,0
		c-0.4,0.1-0.7,0.3-1,0.6c-0.2,0.3-0.3,0.7-0.3,1c0,0.2,0,0.3,0.1,0.5c0.1,0.3,0.2,0.6,0.5,0.8C59.5,8.5,59.9,8.7,60.3,8.7L60.3,8.7
		L60.3,8.7z"/>
	<path class="st1" d="M77.6,3.4v1.9h-0.7c-0.3,0-0.6,0-1,0.1c-0.4,0.1-0.8,0.4-0.9,0.8c-0.1,0.3-0.1,0.6-0.1,0.8
		c0.1,0.7,0.5,1.2,1.2,1.4c0.2,0,0.4,0,0.5,0c0.2,0,0.4,0,0.5-0.1c0.1-0.1,0.3-0.1,0.4-0.2c0.2-0.2,0.4-0.4,0.4-0.6
		c0-0.1,0.1-0.3,0.1-0.5c0-0.2,0-0.4,0-0.5V1.6h2.4v5.5c0,0.3,0,0.5-0.1,0.8c-0.1,0.4-0.3,0.8-0.6,1.2c-0.3,0.4-0.6,0.7-1.1,0.9
		c-0.2,0.1-0.5,0.2-0.7,0.3c-0.2,0.1-0.5,0.1-0.7,0.2c-0.2,0-0.4,0-0.7,0c-0.1,0-0.2,0-0.2,0c-0.3,0-0.7,0-1-0.1
		c-0.3-0.1-0.7-0.2-1-0.4c-0.4-0.2-0.7-0.4-0.9-0.8c-0.2-0.2-0.3-0.4-0.4-0.6c-0.2-0.3-0.3-0.6-0.3-1c0-0.3-0.1-0.5-0.1-0.8
		c0-0.3,0-0.5,0.1-0.8c0.1-0.3,0.2-0.7,0.3-1c0.1-0.2,0.2-0.3,0.3-0.4c0.2-0.2,0.4-0.4,0.6-0.6c0.2-0.1,0.4-0.3,0.7-0.3
		c0.3-0.1,0.5-0.2,0.8-0.2c0.1,0,0.3,0,0.4-0.1c0.2,0,0.5,0,0.7,0C76.9,3.4,77.3,3.4,77.6,3.4C77.6,3.4,77.6,3.4,77.6,3.4L77.6,3.4z
		"/>
	<path class="st1" d="M13.2,1.6h2.4v5.2c0,0.3,0.1,0.6,0.2,0.9c0.2,0.3,0.5,0.6,0.8,0.7c0.3,0.1,0.6,0.1,0.9,0.1
		c0.2,0,0.4-0.1,0.6-0.2c0.2-0.1,0.3-0.3,0.4-0.4c0.1-0.2,0.2-0.4,0.3-0.6c0.1-0.3,0-0.7-0.1-1c-0.1-0.3-0.4-0.6-0.7-0.7
		c-0.3-0.1-0.6-0.2-0.9-0.2c-0.3,0-0.6,0-0.9,0h-0.1V3.4c0,0,0,0,0,0H17c0.2,0,0.5,0,0.7,0c0.2,0,0.5,0.1,0.7,0.1
		c0.3,0.1,0.7,0.2,0.9,0.3C19.6,4,19.8,4.1,20,4.3c0.3,0.2,0.5,0.5,0.6,0.7c0.1,0.2,0.2,0.4,0.3,0.7C20.9,5.9,21,6.1,21,6.2
		c0,0.2,0,0.5,0,0.7c0,0.3,0,0.5-0.1,0.8c-0.1,0.4-0.3,0.8-0.5,1.1c-0.1,0.2-0.3,0.3-0.4,0.5c-0.3,0.3-0.8,0.6-1.2,0.8
		c-0.3,0.1-0.6,0.2-1,0.2c-0.2,0-0.5,0-0.7,0c-0.1,0-0.2,0-0.4,0c-0.3,0-0.5,0-0.8-0.1c-0.3-0.1-0.6-0.2-0.9-0.3
		c-0.4-0.2-0.7-0.4-0.9-0.7c-0.3-0.3-0.5-0.7-0.7-1.1c-0.1-0.2-0.1-0.4-0.2-0.7c0-0.1,0-0.3,0-0.4V1.7L13.2,1.6L13.2,1.6z"/>
	<path class="st1" d="M92.6,3.2h0.2c0.3,0,0.6,0,0.9,0.1c0.3,0.1,0.6,0.2,0.9,0.3c0.2,0.1,0.5,0.3,0.7,0.4c0.3,0.2,0.5,0.5,0.7,0.8
		c0.2,0.3,0.3,0.5,0.4,0.9c0.1,0.2,0.1,0.5,0.2,0.7c0,0.2,0,0.4,0,0.6c0,0.1,0,0.3,0,0.4c0,0.2-0.1,0.4-0.1,0.6
		c-0.1,0.3-0.3,0.6-0.4,0.9c-0.3,0.4-0.7,0.8-1.1,1.1c-0.4,0.2-0.8,0.4-1.2,0.5c-0.2,0-0.4,0.1-0.6,0.1c-0.1,0-0.2,0-0.3,0
		c-0.3,0-0.6,0-0.9-0.1c-0.3,0-0.6-0.1-0.9-0.2c-0.4-0.1-0.8-0.3-1.2-0.6C89.5,9.4,89.2,9,89,8.7c-0.2-0.3-0.3-0.6-0.4-0.9
		c0-0.2-0.1-0.4-0.1-0.6c0-0.1,0-0.2,0-0.4c0-0.3,0-0.6,0.1-0.9C88.8,5.4,89,5,89.3,4.6c0.3-0.4,0.7-0.8,1.2-1
		c0.3-0.1,0.7-0.3,1-0.3C91.9,3.2,92.2,3.2,92.6,3.2L92.6,3.2z M90.9,7c0,0.1,0,0.2,0.1,0.4c0.1,0.5,0.5,0.9,0.9,1.1
		c0.7,0.3,1.5,0.1,2-0.5c0.1-0.2,0.3-0.4,0.3-0.6c0.1-0.2,0.1-0.4,0.1-0.6c0-0.2-0.1-0.4-0.1-0.5c-0.1-0.3-0.3-0.5-0.5-0.7
		c-0.4-0.3-0.9-0.4-1.3-0.3c-0.4,0.1-0.7,0.3-0.9,0.6C91,6.1,90.9,6.5,90.9,7L90.9,7z"/>
	<path class="st1" d="M29.1,3.5v6.8h-2.4V5.5h-0.1c-0.4,0-0.8,0-1.2,0c-0.3,0-0.7,0.1-1,0.2c-0.3,0.1-0.5,0.4-0.7,0.7
		c-0.1,0.2-0.1,0.4-0.1,0.6c0,0.3,0.1,0.7,0.4,0.9c0.2,0.2,0.4,0.3,0.7,0.4c0.3,0.1,0.6,0.1,0.9,0.1c0.1,0,0.3,0,0.4,0v1.9h-0.1
		c-0.3,0-0.7,0-1,0c-0.3,0-0.7,0-1-0.1c-0.3-0.1-0.6-0.2-0.9-0.3c-0.2-0.1-0.3-0.2-0.5-0.3c-0.3-0.2-0.6-0.6-0.8-0.9
		c-0.2-0.3-0.3-0.6-0.4-0.9c0-0.2-0.1-0.4-0.1-0.7c0-0.3,0-0.5,0-0.8c0-0.3,0.1-0.7,0.3-1c0.1-0.2,0.3-0.4,0.4-0.6
		c0.2-0.2,0.4-0.5,0.7-0.6c0.3-0.2,0.6-0.3,0.9-0.4c0.3-0.1,0.6-0.1,0.9-0.1c0.8-0.1,1.5,0,2.3,0c0.7,0,1.3,0,2,0
		C29,3.5,29.1,3.5,29.1,3.5z"/>
	<path class="st1" d="M42.3,3.5v1.9c0,0,0,0.1,0,0.1c-0.4,0.6-0.8,1.3-1.2,1.9c-0.1,0.1-0.2,0.3-0.3,0.4c0,0-0.1,0.1-0.1,0.1h-2.3
		c0,0,0,0,0,0l1.5-2.5h-0.1c-0.4,0-0.7,0-1.1,0c-0.3,0-0.6,0.1-0.9,0.2c-0.4,0.2-0.6,0.5-0.7,0.9c0,0.1,0,0.2,0,0.3
		c0,0.3,0.1,0.7,0.2,0.9c0.1,0.2,0.3,0.3,0.5,0.4c0.3,0.1,0.6,0.2,0.8,0.2c0.1,0,0.3,0,0.4,0h3.3v1.8h-3.9c-0.3,0-0.5,0-0.8-0.1
		c-0.3,0-0.6-0.1-0.9-0.2c-0.3-0.1-0.6-0.3-0.9-0.5c-0.2-0.2-0.4-0.4-0.6-0.6c-0.2-0.2-0.3-0.5-0.4-0.7c-0.1-0.3-0.2-0.6-0.2-0.8
		c0-0.2,0-0.4,0-0.6c0-0.2,0.1-0.4,0.1-0.6c0.1-0.5,0.3-0.9,0.6-1.3c0.2-0.3,0.5-0.5,0.7-0.7c0.3-0.2,0.6-0.3,0.9-0.4
		c0.3-0.1,0.5-0.1,0.8-0.1c0.3,0,0.7,0,1,0h3.4L42.3,3.5L42.3,3.5z"/>
	<path class="st1" d="M29.7,1.7h2.4v1.9h2.3v1.9h-2.3v2c0,0.2,0,0.4,0.1,0.5c0.1,0.2,0.3,0.3,0.4,0.3c0.3,0.1,0.5,0.1,0.8,0.1
		c0.3,0,0.6,0,0.8,0h0.1v1.8h-0.1c-0.6,0-1.3,0-1.9,0c-0.4,0-0.9-0.1-1.3-0.2c-0.2-0.1-0.4-0.2-0.6-0.4c-0.2-0.2-0.4-0.4-0.5-0.6
		c-0.1-0.2-0.2-0.5-0.2-0.8c0-0.4-0.1-0.8,0-1.1V1.8L29.7,1.7L29.7,1.7z"/>
	<path class="st1" d="M88.5,3.4v2c0,0-0.1,0-0.1,0h-0.3c-0.5,0-0.9,0-1.4,0c-0.4,0-0.7,0.1-1,0.3c-0.2,0.2-0.4,0.4-0.5,0.7
		c0,0.1-0.1,0.3-0.1,0.4c0,0.3,0.1,0.7,0.3,1c0.2,0.3,0.5,0.4,0.9,0.4c0.3,0.1,0.7,0.1,1,0.1h1.1v1.9H88c-0.4,0-0.8,0-1.1,0
		c-0.3,0-0.5,0-0.8,0c-0.4,0-0.8-0.1-1.2-0.3c-0.2-0.1-0.4-0.2-0.6-0.3c-0.2-0.1-0.3-0.3-0.5-0.4c-0.3-0.3-0.5-0.6-0.6-0.9
		c-0.1-0.3-0.2-0.6-0.3-0.9c-0.1-0.3-0.1-0.7-0.1-1c0-0.3,0.1-0.6,0.2-0.9c0.1-0.3,0.3-0.6,0.5-0.9c0.2-0.3,0.4-0.5,0.7-0.7
		c0.2-0.1,0.5-0.3,0.7-0.3c0.3-0.1,0.6-0.2,0.9-0.2c0.8-0.1,1.5-0.1,2.3-0.1L88.5,3.4L88.5,3.4z"/>
	<path class="st1" d="M69.6,1.6H72v8.7h-2.4V1.6z"/>
	<path class="st1" d="M69.2,3.5v2h-0.1c-0.3,0-0.6,0-0.9,0c-0.3,0-0.5,0.1-0.7,0.3c-0.1,0.1-0.2,0.3-0.2,0.4c0,0.1,0,0.2,0,0.4v3.7
		h-2.4V6.1c0-0.3,0.1-0.7,0.2-1c0.1-0.3,0.3-0.5,0.5-0.7c0.2-0.2,0.5-0.4,0.8-0.6c0.3-0.1,0.5-0.2,0.8-0.2
		C67.8,3.5,68.5,3.5,69.2,3.5C69.2,3.5,69.2,3.5,69.2,3.5z"/>
	<path class="st1" d="M82.8,9.1c0,0.6-0.5,1.1-1.1,1.1c-0.6,0-1.1-0.5-1.1-1.1C80.5,8.5,81,8,81.7,8c0,0,0,0,0,0
		C82.3,8,82.8,8.5,82.8,9.1z"/>
</g>
</svg>
